<svg width="67" height="14" viewBox="0 0 67 14" fill="none" xmlns="http://www.w3.org/2000/svg">
<path fill-rule="evenodd" clip-rule="evenodd" d="M61.7601 4.66939C60.6238 3.20513 59.9991 1.46625 59.7646 0.294174L61.2355 0C61.4344 0.994592 61.9797 2.50571 62.9451 3.74979C63.9 4.98035 65.2179 5.89709 67.0001 5.89709V6.19788V7.39709V7.69788C65.2179 7.69788 63.9 8.61462 62.9451 9.84518C61.9797 11.0893 61.4344 12.6004 61.2355 13.595L59.7646 13.3008C59.9991 12.1287 60.6238 10.3898 61.7601 8.92558C62.0553 8.54516 62.3882 8.17983 62.7604 7.84705H0.5V5.84705H62.8735C62.4553 5.48826 62.0849 5.08796 61.7601 4.66939Z" fill="black"/>
</svg>
