<svg width="22" height="22" viewBox="0 0 22 22" fill="none" xmlns="http://www.w3.org/2000/svg">
<path d="M3.22266 22H10.3984V14.1797H7.82031V11.6016H10.3984V8.37891C10.3984 6.60191 11.8441 5.15625 13.6211 5.15625H16.8438V7.73438H14.2656C13.5548 7.73438 12.9766 8.31261 12.9766 9.02344V11.6016H16.7274L16.2977 14.1797H12.9766V22H18.7773C20.5543 22 22 20.5543 22 18.7773V3.22266C22 1.44566 20.5543 0 18.7773 0H3.22266C1.44566 0 0 1.44566 0 3.22266V18.7773C0 20.5543 1.44566 22 3.22266 22ZM1.28906 3.22266C1.28906 2.15649 2.15649 1.28906 3.22266 1.28906H18.7773C19.8435 1.28906 20.7109 2.15649 20.7109 3.22266V18.7773C20.7109 19.8435 19.8435 20.7109 18.7773 20.7109H14.2656V15.4688H17.3898L18.2491 10.3125H14.2656V9.02344H18.1328V3.86719H13.6211C11.1333 3.86719 9.10938 5.89108 9.10938 8.37891V10.3125H6.53125V15.4688H9.10938V20.7109H3.22266C2.15649 20.7109 1.28906 19.8435 1.28906 18.7773V3.22266Z" fill="black"/>
</svg>
