<svg width="680" height="127" viewBox="0 0 680 127" fill="none" xmlns="http://www.w3.org/2000/svg">
<g clip-path="url(#clip0)">
<path d="M106.872 2.0437H123.961V124.143H106.872V2.0437Z" fill="#020202"/>
<path d="M150.232 2.0437H168.342V109.2H216.114V124.016H150.232V2.0437Z" fill="#020202"/>
<path d="M329.16 2.80957H345.356L372.266 89.1479C374.051 95.6616 376.602 101.026 376.602 101.026C376.602 101.026 378.897 95.6616 380.938 89.1479L407.975 2.80957H424.044L384.636 124.909H368.567L329.16 2.80957Z" fill="#020202"/>
<path d="M539.205 78.2922L499.543 2.17142V2.0437H518.162L539.843 42.1476C543.414 49.2999 546.985 57.6017 546.985 57.6017H547.367C547.367 57.6017 550.938 49.2999 554.509 42.1476L576.189 2.0437H594.809C594.809 2.0437 594.937 2.0437 594.809 2.17142L555.147 78.2922C555.147 83.6564 555.147 80.8466 555.147 80.9743V124.271H538.823V78.2922C539.205 78.2922 539.205 84.295 539.205 78.2922Z" fill="#020202"/>
<path d="M473.271 2.17114H455.672L413.331 124.271H430.293L436.924 104.858L439.22 97.833H489.723L492.783 107.029L498.65 124.271H515.739L473.271 2.17114ZM444.449 81.7403L446.617 74.9712H446.489L449.933 64.8814L453.631 54.2807L459.753 36.5277C461.793 30.1417 464.471 25.0329 464.471 25.0329C464.471 25.0329 467.277 30.1417 469.318 36.5277L482.326 75.0989H482.198L484.366 81.8681H444.449V81.7403Z" fill="#020202"/>
<path d="M637.659 2.17114H620.06L577.719 124.271H594.681L601.313 104.858L603.608 97.833H654.111L657.172 107.029L663.038 124.271H680.127L637.659 2.17114ZM608.837 81.7403L611.005 74.9712H610.878L614.321 64.8814L618.019 54.2807L624.141 36.5277C626.181 30.1417 628.86 25.0329 628.86 25.0329C628.86 25.0329 631.665 30.1417 633.706 36.5277L646.714 75.0989H646.586L648.755 81.8681H608.837V81.7403Z" fill="#020202"/>
<path d="M81.4929 13.283C81.4929 13.283 65.934 2.04373 44.8912 1.78829C23.8485 1.53285 6.50413 11.3672 5.48387 36.7834C4.46362 62.1996 25.1238 68.7133 42.0855 70.8845C59.0473 73.0557 68.6122 81.8684 68.4846 89.5315C68.3571 97.1947 61.3428 107.412 42.4681 106.901C23.7209 106.39 10.8402 94.5126 10.8402 94.5126L0 108.562C0 108.562 20.15 124.782 43.4884 124.527C66.8267 124.271 86.7217 114.437 87.1043 91.7028C87.4869 69.0964 71.8005 57.0908 52.7982 54.6641C34.051 52.3652 21.4254 48.9168 23.5934 34.1013C25.7614 19.2858 48.9723 15.3265 72.5657 27.0767L81.4929 13.283Z" fill="#020202"/>
<path d="M280.57 0C254.298 0 238.612 16.6035 238.612 40.2316V60.4113V65.9032V86.0829C238.612 109.711 254.298 126.315 280.57 126.315C306.842 126.315 322.528 109.711 322.528 86.0829V65.9032V60.4113V40.2316C322.528 16.6035 306.969 0 280.57 0ZM298.552 101.154C294.726 105.241 290.007 107.923 280.698 107.923C271.388 107.923 266.669 105.369 262.843 101.154C259.782 97.8331 257.359 92.852 256.849 85.1889L256.722 63.0934L256.849 40.9979C257.359 33.3348 259.782 28.3537 262.843 25.033C266.669 20.946 271.388 18.2639 280.698 18.2639C290.007 18.2639 294.726 20.8183 298.552 25.033C301.613 28.3537 304.036 33.3348 304.546 40.9979L304.674 63.0934L304.546 85.1889C304.036 92.852 301.485 97.9608 298.552 101.154Z" fill="#020202"/>
</g>
<defs>
<clipPath id="clip0">
<rect width="680" height="126.315" fill="white"/>
</clipPath>
</defs>
</svg>
