<svg width="25" height="22" viewBox="0 0 25 22" fill="none" xmlns="http://www.w3.org/2000/svg">
<path d="M24.614 1.38403C24.3086 1.02551 23.8512 0.828125 23.326 0.828125C23.0404 0.828125 22.7379 0.885803 22.427 0.999878L1.26499 8.75494C0.141946 9.16638 -0.00930676 9.78381 0.000420707 10.1152C0.0101482 10.4467 0.197641 11.0549 1.34319 11.4048C1.35006 11.4069 1.35693 11.4089 1.36379 11.4107L5.75337 12.6166L8.12725 19.1334C8.45093 20.0218 9.17744 20.5737 10.0235 20.5737C10.557 20.5737 11.0817 20.3591 11.541 19.9533L14.2561 17.5533L18.1942 20.5975C18.1946 20.5978 18.1952 20.598 18.1956 20.5984L18.233 20.6273C18.2364 20.6299 18.24 20.6326 18.2435 20.6352C18.6812 20.9611 19.159 21.1332 19.6257 21.1334H19.6259C20.5378 21.1334 21.2639 20.4854 21.4755 19.4827L24.9428 3.04645C25.0821 2.38672 24.9653 1.79639 24.614 1.38403ZM7.22183 12.3876L15.6907 8.23419L10.4174 13.6133C10.331 13.7014 10.2698 13.8092 10.2396 13.9266L9.22283 17.8806L7.22183 12.3876ZM10.5486 18.9188C10.5135 18.9497 10.4783 18.9774 10.443 19.0028L11.3863 15.3348L13.1024 16.6614L10.5486 18.9188ZM23.5072 2.76721L20.0398 19.2037C20.0064 19.361 19.8998 19.727 19.6257 19.727C19.4903 19.727 19.3201 19.6561 19.146 19.5274L14.6836 16.0781C14.683 16.0775 14.6822 16.077 14.6815 16.0766L12.0263 14.024L19.652 6.24512C19.8962 5.99609 19.9183 5.61469 19.7045 5.34113C19.4905 5.06757 19.1027 4.98151 18.7855 5.13715L6.24317 11.2884L1.7939 10.0663L22.9495 2.31366C23.1282 2.24811 23.2529 2.23438 23.326 2.23438C23.3708 2.23438 23.4505 2.2395 23.4801 2.27448C23.519 2.32007 23.5686 2.47552 23.5072 2.76721Z" fill="black"/>
</svg>
