<svg width="51" height="48" viewBox="0 0 51 48" fill="none" xmlns="http://www.w3.org/2000/svg">
<mask id="path-1-inside-1" fill="white">
<path fill-rule="evenodd" clip-rule="evenodd" d="M4.2925 24.3595C1.65088 21.8875 0 18.3697 0 14.4663C0 6.98458 6.06514 0.919434 13.5469 0.919434C18.7216 0.919434 23.2187 3.82086 25.5 8.08565C27.7813 3.82086 32.2784 0.919434 37.4531 0.919434C44.9349 0.919434 51 6.98458 51 14.4663C51 18.3474 49.3679 21.8474 46.7525 24.3172L25.7265 47.3647L4.2925 24.3595Z"/>
</mask>
<path d="M4.2925 24.3595L5.38998 23.337L5.35495 23.2994L5.31743 23.2643L4.2925 24.3595ZM25.5 8.08565L24.1773 8.79317L25.5 11.2658L26.8227 8.79317L25.5 8.08565ZM46.7525 24.3172L45.7227 23.2266L45.682 23.265L45.6444 23.3062L46.7525 24.3172ZM25.7265 47.3647L24.629 48.3872L25.7381 49.5776L26.8346 48.3756L25.7265 47.3647ZM5.31743 23.2643C2.96621 21.064 1.5 17.9375 1.5 14.4663H-1.5C-1.5 18.8018 0.335549 22.7109 3.26758 25.4548L5.31743 23.2643ZM1.5 14.4663C1.5 7.813 6.89357 2.41943 13.5469 2.41943V-0.580566C5.23672 -0.580566 -1.5 6.15615 -1.5 14.4663H1.5ZM13.5469 2.41943C18.1466 2.41943 22.1466 4.99679 24.1773 8.79317L26.8227 7.37813C24.2908 2.64493 19.2966 -0.580566 13.5469 -0.580566V2.41943ZM37.4531 -0.580566C31.7033 -0.580566 26.7092 2.64493 24.1773 7.37813L26.8227 8.79317C28.8534 4.99678 32.8534 2.41943 37.4531 2.41943V-0.580566ZM52.5 14.4663C52.5 6.15615 45.7633 -0.580566 37.4531 -0.580566V2.41943C44.1064 2.41943 49.5 7.813 49.5 14.4663H52.5ZM47.7824 25.4077C50.6853 22.6664 52.5 18.7771 52.5 14.4663H49.5C49.5 17.9178 48.0504 21.0284 45.7227 23.2266L47.7824 25.4077ZM26.8346 48.3756L47.8607 25.3281L45.6444 23.3062L24.6183 46.3537L26.8346 48.3756ZM3.19503 25.382L24.629 48.3872L26.824 46.3421L5.38998 23.337L3.19503 25.382Z" fill="black" mask="url(#path-1-inside-1)"/>
</svg>
